<mxfile host="65bd71144e">
    <diagram id="3MTmsI4uKQa7niuScM6I" name="Page-1">
        <mxGraphModel dx="884" dy="471" grid="1" gridSize="10" guides="1" tooltips="1" connect="1" arrows="1" fold="1" page="1" pageScale="1" pageWidth="1169" pageHeight="827" math="0" shadow="0">
            <root>
                <mxCell id="0"/>
                <mxCell id="1" parent="0"/>
                <mxCell id="2" value="Model:&lt;br&gt;Connects to the database an returns the data" style="ellipse;whiteSpace=wrap;html=1;aspect=fixed;fillColor=#e3c800;fontColor=#000000;strokeColor=#B09500;" vertex="1" parent="1">
                    <mxGeometry x="100" y="40" width="120" height="120" as="geometry"/>
                </mxCell>
                <mxCell id="3" value="View:&lt;br&gt;Renders the data visible" style="ellipse;whiteSpace=wrap;html=1;aspect=fixed;fillColor=#d5e8d4;gradientColor=#97d077;strokeColor=#82b366;" vertex="1" parent="1">
                    <mxGeometry x="270" y="220" width="120" height="120" as="geometry"/>
                </mxCell>
                <mxCell id="7" style="edgeStyle=none;html=1;fillColor=#f8cecc;gradientColor=#ea6b66;strokeColor=#b85450;" edge="1" parent="1">
                    <mxGeometry relative="1" as="geometry">
                        <mxPoint x="420" y="100" as="sourcePoint"/>
                        <mxPoint x="260" y="99.5" as="targetPoint"/>
                    </mxGeometry>
                </mxCell>
                <mxCell id="8" value="Use a function of the model object&lt;br&gt;that allows the controller to access&lt;br&gt;some needed data" style="edgeLabel;html=1;align=center;verticalAlign=middle;resizable=0;points=[];fontColor=#FFCCCC;" vertex="1" connectable="0" parent="7">
                    <mxGeometry x="-0.106" y="2" relative="1" as="geometry">
                        <mxPoint x="-18" y="-32" as="offset"/>
                    </mxGeometry>
                </mxCell>
                <mxCell id="4" value="Controller:" style="ellipse;whiteSpace=wrap;html=1;aspect=fixed;fillColor=#a20025;fontColor=#ffffff;strokeColor=#6F0000;" vertex="1" parent="1">
                    <mxGeometry x="440" y="40" width="120" height="120" as="geometry"/>
                </mxCell>
                <mxCell id="17" value="" style="endArrow=classic;html=1;fontColor=#FFFFCC;fillColor=#f8cecc;gradientColor=#ea6b66;strokeColor=#b85450;" edge="1" parent="1">
                    <mxGeometry width="50" height="50" relative="1" as="geometry">
                        <mxPoint x="450" y="160" as="sourcePoint"/>
                        <mxPoint x="380" y="230" as="targetPoint"/>
                    </mxGeometry>
                </mxCell>
                <mxCell id="18" value="asks for rendering&lt;br&gt;&amp;nbsp;of an object" style="edgeLabel;html=1;align=center;verticalAlign=middle;resizable=0;points=[];fontColor=#FF9999;rotation=-45;" vertex="1" connectable="0" parent="17">
                    <mxGeometry x="-0.3167" y="1" relative="1" as="geometry">
                        <mxPoint x="-27" y="-5" as="offset"/>
                    </mxGeometry>
                </mxCell>
                <mxCell id="19" value="By passing the controller as a parameter i should be able to access every variable of the view object and therefor not need to pass anything between the view and controller object?" style="text;html=1;strokeColor=none;fillColor=none;align=center;verticalAlign=middle;whiteSpace=wrap;rounded=0;fontColor=#FF9999;" vertex="1" parent="1">
                    <mxGeometry x="470" y="230" width="410" height="60" as="geometry"/>
                </mxCell>
                <mxCell id="20" value="Creates a model &amp;amp; View instance which allows to access every function and data of the view and model object" style="whiteSpace=wrap;html=1;fillColor=#a20025;strokeColor=#6F0000;fontColor=#ffffff;" vertex="1" parent="1">
                    <mxGeometry x="630" y="60" width="170" height="80" as="geometry"/>
                </mxCell>
            </root>
        </mxGraphModel>
    </diagram>
</mxfile>